<svg width="389" height="397" viewBox="0 0 389 397" fill="none" xmlns="http://www.w3.org/2000/svg">
<circle cx="194.126" cy="202.874" r="194.126" fill="#43645D"/>
<path d="M168.471 268.143C160.272 281.466 144.033 301.489 116.916 307.874L123.143 287.377C123.143 287.377 99.1 303.38 76.0031 307.874C80.4965 284.698 96.4993 260.733 96.4993 260.733L76.0031 266.961C82.3878 239.844 102.411 223.605 115.733 215.406L172.498 203.486L168.471 268.143Z" fill="#E2F3BB"/>
<path d="M258.154 322.655C228.536 352.274 181.112 353.212 150.371 325.482C162.506 324.196 175.588 314.544 177.418 297.558C178.181 290.503 176.994 282.178 172.991 272.66L111.215 210.884C101.697 206.881 93.3719 205.694 86.3169 206.457C69.3313 208.287 59.6789 221.368 58.393 233.503C30.6636 202.763 31.6005 155.34 61.2199 125.72C78.7346 108.205 102.49 100.723 125.334 103.275C135.809 104.447 146.089 107.717 155.492 113.111L270.762 228.382C276.157 237.785 279.433 248.07 280.599 258.539C283.152 281.384 275.668 305.14 258.154 322.655Z" fill="#C1E56B"/>
<path d="M280.6 258.541C249.919 279.032 214.83 291.954 177.419 297.558C178.181 290.502 176.995 282.177 172.991 272.66L111.215 210.883C101.698 206.88 93.3724 205.693 86.3174 206.456C91.9212 169.045 104.844 133.956 125.334 103.275C135.809 104.447 146.089 107.717 155.492 113.111L270.762 228.382C276.158 237.786 279.433 248.07 280.6 258.541Z" fill="#89A34C"/>
<path d="M172.989 272.662C221.073 261.618 266.739 237.375 304.197 199.916C359.213 144.901 385.733 72.1857 383.775 0.100984C311.69 -1.85717 238.975 24.662 183.959 79.6774C146.5 117.137 122.257 162.802 111.214 210.886L172.989 272.662Z" fill="#E3E8EC"/>
<path d="M215.205 110.923C177.748 148.38 147.935 188.484 127.27 226.938L111.216 210.884C122.254 162.804 146.504 117.136 183.96 79.6793C238.975 24.6632 311.69 -1.8546 383.776 0.104908C330.929 17.3848 270.221 55.9087 215.205 110.923Z" fill="#D5D8DB"/>
<path d="M367.696 100.13C351.588 90.453 335.614 78.0385 320.727 63.1522C313.538 55.9635 306.931 48.5291 300.929 40.9516C294.492 32.8199 288.744 24.5195 283.729 16.1833C315.801 4.59166 349.619 -0.767794 383.301 0.0901242C383.461 0.100249 383.621 0.100249 383.775 0.104974L383.77 0.109699C384.687 33.9418 379.338 67.9082 367.696 100.13Z" fill="#C1E56B"/>
<path d="M373.211 232.178C373.206 232.173 373.211 232.167 373.206 232.162L373.211 232.178Z" fill="#C1E56B"/>
<path d="M383.775 0.104974L383.77 0.109699C357.541 8.68011 329.373 22.4898 300.93 40.9516C294.493 32.8199 288.745 24.5195 283.73 16.1833C315.802 4.59166 349.62 -0.767794 383.302 0.0901242C383.461 0.100249 383.62 0.100249 383.775 0.104974Z" fill="#89A34C"/>
<path d="M262.954 171.725C291.01 171.725 313.754 148.981 313.754 120.925C313.754 92.8689 291.01 70.1249 262.954 70.1249C234.898 70.1249 212.154 92.8689 212.154 120.925C212.154 148.981 234.898 171.725 262.954 171.725Z" fill="#C1E56B"/>
<path d="M262.953 155.134C281.847 155.134 297.163 139.818 297.163 120.925C297.163 102.032 281.847 86.7157 262.953 86.7157C244.06 86.7157 228.744 102.032 228.744 120.925C228.744 139.818 244.06 155.134 262.953 155.134Z" fill="#E2F3BB"/>
</svg>
