<svg width="165" height="40" viewBox="0 0 165 40" fill="none" xmlns="http://www.w3.org/2000/svg">
<g clip-path="url(#clip0_1505_13133)">
<path d="M20.4732 5.44968e-06C16.4415 0.0149837 12.5049 1.20079 9.16018 3.40769C5.8155 5.61459 3.21281 8.74362 1.68075 12.3997C0.148697 16.0557 -0.244027 20.0749 0.552171 23.9496C1.34837 27.8243 3.29778 31.3809 6.15426 34.1702C9.01075 36.9595 12.6462 38.8565 16.6016 39.6216C20.557 40.3867 24.6549 39.9856 28.378 38.469C32.101 36.9524 35.2822 34.3883 37.5199 31.1004C39.7576 27.8126 40.9514 23.9484 40.9505 19.9958C40.9392 14.6821 38.7755 9.5905 34.9353 5.84068C31.0952 2.09086 25.8931 -0.0100552 20.4732 5.44968e-06ZM12.0426 17.9537C11.3364 17.9537 10.6591 17.6786 10.1597 17.1891C9.66035 16.6995 9.37982 16.0355 9.37982 15.3432C9.37982 14.6508 9.66035 13.9868 10.1597 13.4972C10.6591 13.0077 11.3364 12.7326 12.0426 12.7326H14.5893C15.2956 12.7326 15.9728 13.0077 16.4722 13.4972C16.9716 13.9868 17.2521 14.6508 17.2521 15.3432C17.2521 16.0355 16.9716 16.6995 16.4722 17.1891C15.9728 17.6786 15.2956 17.9537 14.5893 17.9537H12.0426ZM28.8307 22.5853C28.2626 24.9486 27.0304 27.1085 25.2738 28.8202C23.5173 30.5319 21.3067 31.7268 18.8927 32.2695C18.4032 32.3799 17.8908 32.339 17.4259 32.1523C16.9611 31.9656 16.5667 31.6424 16.2969 31.2269C16.0272 30.8115 15.8953 30.3244 15.9194 29.8325C15.9436 29.3406 16.1226 28.8681 16.4318 28.48C16.7713 28.0559 17.2488 27.7587 17.7846 27.6379C19.317 27.2947 20.72 26.5359 21.8333 25.4481C22.9466 24.3603 23.7255 22.9874 24.0807 21.4863C24.2265 20.8677 24.617 20.3311 25.1663 19.9948C25.7156 19.6584 26.3787 19.5497 27.0098 19.6926C27.6408 19.8356 28.1881 20.2184 28.5312 20.7569C28.8743 21.2955 28.9851 21.9456 28.8393 22.5642L28.8307 22.5853ZM30.7934 17.2042C30.2908 17.6933 29.6119 17.9686 28.9037 17.9705H21.6714C21.3217 17.9705 20.9755 17.903 20.6524 17.7718C20.3293 17.6406 20.0358 17.4483 19.7885 17.2059C19.5413 16.9635 19.3451 16.6757 19.2113 16.359C19.0775 16.0423 19.0086 15.7028 19.0086 15.36C19.0086 15.0172 19.0775 14.6777 19.2113 14.361C19.3451 14.0443 19.5413 13.7565 19.7885 13.5141C20.0358 13.2717 20.3293 13.0794 20.6524 12.9482C20.9755 12.817 21.3217 12.7495 21.6714 12.7495H28.9037C29.4315 12.7465 29.9483 12.8975 30.3882 13.1834C30.8281 13.4694 31.1713 13.8772 31.3739 14.3549C31.5766 14.8327 31.6296 15.3588 31.5262 15.8662C31.4229 16.3737 31.1678 16.8394 30.7934 17.2042Z" fill="#C1E56B"/>
<path d="M51.4856 28.9937V10.7621H44.9189V7.79367H61.3507V10.7621H54.784V28.9937H51.4856Z" fill="#C1E56B"/>
<path d="M68.527 29.4147C67.131 29.4409 65.7504 29.1239 64.5114 28.4926C63.3499 27.8875 62.39 26.9683 61.7456 25.8442C61.0501 24.5916 60.7035 23.1815 60.7406 21.7558V21.3011C60.7008 19.8804 61.0477 18.4751 61.7456 17.2295C62.3967 16.1093 63.3548 15.1904 64.5114 14.5768C65.7475 13.9362 67.1291 13.6131 68.527 13.6379C69.9303 13.6146 71.317 13.9375 72.5598 14.5768C73.721 15.1887 74.6837 16.1077 75.3385 17.2295C76.0364 18.4751 76.3833 19.8804 76.3435 21.3011V21.7558C76.3806 23.1815 76.034 24.5916 75.3385 25.8442C74.6906 26.9701 73.726 27.8895 72.5598 28.4926C71.3141 29.1224 69.9284 29.4393 68.527 29.4147ZM68.527 26.6316C69.1522 26.654 69.7753 26.5483 70.3565 26.3214C70.9378 26.0945 71.4643 25.7513 71.9027 25.3137C72.7616 24.4323 73.1911 23.2154 73.1911 21.6632V21.4147C73.1911 19.8596 72.7616 18.6442 71.9027 17.7684C70.9943 16.9219 69.7889 16.4499 68.5356 16.4499C67.2823 16.4499 66.0769 16.9219 65.1685 17.7684C64.3096 18.6442 63.8801 19.8596 63.8801 21.4147V21.6884C63.8801 23.2407 64.3096 24.4575 65.1685 25.3389C65.6044 25.7742 66.1284 26.1153 66.7069 26.3401C67.2853 26.5649 67.9053 26.6685 68.527 26.6442V26.6316Z" fill="#C1E56B"/>
<path d="M86.0238 29.2758C84.9554 29.2937 83.9013 29.0321 82.9703 28.5179C82.0742 28.0136 81.344 27.2685 80.8658 26.3705C80.3314 25.3403 80.0686 24.1953 80.1014 23.04V14.0758H83.2451V22.8253C83.2451 24.1193 83.5715 25.0737 84.2243 25.6884C84.9701 26.3367 85.9479 26.6684 86.9429 26.6105C87.522 26.6355 88.0995 26.5354 88.6347 26.3171C89.1698 26.0988 89.6494 25.7677 90.0394 25.3474C90.8268 24.4884 91.219 23.2519 91.2162 21.6379V14.0758H94.3642V28.9937H91.2806V26.7621H90.791C90.4347 27.4492 89.9092 28.0382 89.2621 28.4758C88.5363 28.9937 87.4497 29.2758 86.0238 29.2758Z" fill="#C1E56B"/>
<path d="M99.0027 28.9937V14.0758H102.091V15.8316H102.576C102.786 15.2485 103.204 14.7596 103.753 14.4547C104.372 14.1494 105.061 14.0045 105.754 14.0337H107.558V16.8463H105.634C104.72 16.8118 103.826 17.112 103.126 17.6884C102.476 18.2498 102.151 19.1032 102.151 20.2484V28.9937H99.0027Z" fill="#C1E56B"/>
<path d="M109.907 21.5537V21.0695C109.867 19.6654 110.193 18.2745 110.852 17.0274C111.426 15.9701 112.285 15.0877 113.335 14.4766C114.386 13.8655 115.587 13.5491 116.809 13.5621C118.192 13.5621 119.24 13.8035 119.952 14.2863C120.574 14.68 121.105 15.1963 121.511 15.8021H122.061V13.9832H125.849V31.6674C125.872 32.1183 125.802 32.569 125.645 32.9933C125.488 33.4176 125.246 33.8071 124.934 34.139C124.614 34.4499 124.232 34.6924 123.811 34.8511C123.39 35.0099 122.941 35.0813 122.491 35.0611H112.351V31.7305H121.146C121.713 31.7305 122.005 31.4274 122.005 30.8211V26.9137H121.456C121.215 27.2778 120.926 27.6091 120.597 27.899C120.168 28.2707 119.669 28.5568 119.128 28.7411C117.595 29.265 115.921 29.2362 114.408 28.6598C112.894 28.0834 111.639 26.9971 110.869 25.5958C110.204 24.3503 109.873 22.9593 109.907 21.5537ZM117.908 25.7348C118.453 25.7494 118.996 25.658 119.504 25.4657C120.013 25.2735 120.478 24.9842 120.872 24.6148C121.665 23.8653 122.061 22.8155 122.061 21.4653V21.1621C122.061 19.7895 121.669 18.7341 120.884 17.9958C120.065 17.2854 119.009 16.8933 117.915 16.8933C116.821 16.8933 115.764 17.2854 114.945 17.9958C114.149 18.7341 113.752 19.7895 113.755 21.1621V21.4653C113.755 22.8155 114.152 23.8653 114.945 24.6148C115.339 24.9842 115.803 25.2735 116.312 25.4657C116.821 25.658 117.363 25.7494 117.908 25.7348Z" fill="#C1E56B"/>
<path d="M130.122 28.9937V13.9832H133.91V15.6674H134.46C134.65 15.1026 135.048 14.628 135.577 14.3368C136.135 14.0452 136.761 13.9002 137.393 13.9158H139.214V17.3095H137.32C136.451 17.28 135.599 17.5563 134.92 18.0884C134.287 18.6021 133.97 19.3937 133.97 20.4631V28.9937H130.122Z" fill="#C1E56B"/>
<path d="M144.14 12.2274C143.817 12.2352 143.496 12.1804 143.194 12.0663C142.893 11.9521 142.618 11.7808 142.384 11.5621C141.919 11.091 141.66 10.4615 141.66 9.8063C141.66 9.15113 141.919 8.5216 142.384 8.05052C142.868 7.62268 143.497 7.38589 144.149 7.38589C144.801 7.38589 145.43 7.62268 145.914 8.05052C146.364 8.52879 146.614 9.15562 146.614 9.8063C146.614 10.457 146.364 11.0838 145.914 11.5621C145.678 11.7832 145.4 11.956 145.096 12.0702C144.791 12.1845 144.466 12.2379 144.14 12.2274ZM142.221 28.9937V13.9832H146.086V28.9937H142.221Z" fill="#C1E56B"/>
<path d="M150.342 28.9937V13.9831H154.126V15.941H154.675C154.994 15.3338 155.468 14.8175 156.05 14.4421C156.723 13.9649 157.74 13.7277 159.103 13.7305C160.193 13.7056 161.268 13.9829 162.204 14.5305C163.086 15.0667 163.8 15.8318 164.266 16.741C164.774 17.7643 165.025 18.8917 165 20.0295V28.9937H161.135V20.3452C161.135 19.2224 160.848 18.3803 160.276 17.8189C159.957 17.5238 159.58 17.2966 159.168 17.1516C158.755 17.0067 158.316 16.9472 157.879 16.9768C157.36 16.9501 156.842 17.0415 156.365 17.2439C155.889 17.4462 155.466 17.754 155.131 18.1431C154.478 18.9221 154.156 20.0042 154.156 21.3979V28.9937H150.342Z" fill="#C1E56B"/>
</g>
<defs>
<clipPath id="clip0_1505_13133">
<rect width="165" height="40" fill="white"/>
</clipPath>
</defs>
</svg>
